# xmcd CD database file
#
# Track frame offsets:
#	150
#	26532
#	44905
#	55860
#	69935
#	81130
#	116100
#	131100
#	167892
#
# Disc length: 2587 seconds
#
# Revision: 1
# Processed by: cddbd v1.4PL0 Copyright (c) Steve Scherf et al.
# Submitted via: CDex 1.50Beta7
#
DISCID=7f0a1909
DTITLE=Michael Mantler - LIVE
DYEAR=1987
DGENRE=Jazz
TTITLE0=PREVIEW/NO ANSWER
TTITLE1=SLOW ORCHESTRA PIECE #3 (PRISONNIERS)
TTITLE2=FOR INSTANCE
TTITLE3=SLOW ORCHESTRA PIECE #8 (A L'ABATTOIR)
TTITLE4=WHEN I RUN
TTITLE5=THE REMEMBERED VISIT
TTITLE6=SLOW ORCHESTRA PIECE #6
TTITLE7=THE HAPLESS CHILD
TTITLE8=THE DOUBTFUL GUEST
EXTD=YEAR: 1987
EXTT0=
EXTT1=
EXTT2=
EXTT3=
EXTT4=
EXTT5=
EXTT6=
EXTT7=
EXTT8=
PLAYORDER=
